<?xml version="1.0" encoding="iso-8859-1"?>
<!-- Generator: Adobe Illustrator 24.2.0, SVG Export Plug-In . SVG Version: 6.00 Build 0)  -->
<svg version="1.1" xmlns="http://www.w3.org/2000/svg" xmlns:xlink="http://www.w3.org/1999/xlink" x="0px" y="0px"
	 viewBox="0 0 56.693 56.693" style="enable-background:new 0 0 56.693 56.693;" xml:space="preserve">
<g id="backspace">
	<g id="backspace_1_" transform="translate(2191.000000, 2291.000000)">
		<path id="Shape" style="fill:none;stroke:#FFFFFF;" d="M-2175.881-2282.569l-7.303,11.686c-0.287,0.46-0.287,1.043,0,1.502
			l7.303,11.686c0.259,0.415,0.713,0.666,1.202,0.666h23.66c0.783,0,1.417-0.635,1.417-1.417v-23.371
			c0-0.783-0.635-1.417-1.417-1.417h-23.66C-2175.167-2283.235-2175.622-2282.984-2175.881-2282.569z"/>
		<polygon id="Path" style="fill-rule:evenodd;clip-rule:evenodd;fill:none;stroke:#FFFFFF;" points="-2169.096,-2263.421 
			-2163.475,-2269.042 -2157.854,-2263.421 -2156.764,-2264.511 -2162.385,-2270.132 -2156.764,-2275.753 -2157.854,-2276.844 
			-2163.475,-2271.222 -2169.096,-2276.844 -2170.186,-2275.753 -2164.565,-2270.132 -2170.186,-2264.511 		"/>
	</g>
</g>
<g id="Layer_1">
</g>
</svg>
