<?xml version="1.0" encoding="iso-8859-1"?>
<!-- Generator: Adobe Illustrator 24.2.0, SVG Export Plug-In . SVG Version: 6.00 Build 0)  -->
<svg version="1.1" xmlns="http://www.w3.org/2000/svg" xmlns:xlink="http://www.w3.org/1999/xlink" x="0px" y="0px"
	 viewBox="0 0 56.693 56.693" style="enable-background:new 0 0 56.693 56.693;" xml:space="preserve">
<g id="bed_active">
	<path style="fill:#E74C3C;stroke:#FFFFFF;stroke-miterlimit:10;" d="M53.304,56.138H3.389c-1.566,0-2.835-1.269-2.835-2.835V3.389
		c0-1.566,1.269-2.835,2.835-2.835h49.914c1.566,0,2.835,1.269,2.835,2.835v49.914C56.138,54.869,54.869,56.138,53.304,56.138z"/>
	<polygon style="fill:none;stroke:#FFFFFF;" points="50.069,26.859 6.624,26.859 3.195,48.442 3.195,52.316 9.704,52.316 
		9.704,48.442 46.989,48.442 46.989,52.316 53.498,52.316 53.498,48.442 	"/>
	<polygon style="fill:none;stroke:#FFFFFF;stroke-width:0.5;" points="50.932,46.643 48.338,28.606 8.355,28.606 5.83,46.643 	"/>
	<path style="fill:none;stroke:#FFFFFF;" d="M28.381,4.377c0,0,1.314,1.855,1.314,4.427c0,2.714-2.629,6.227-2.629,9.2
		c0,3.395,1.314,6.087,1.314,6.087"/>
	<path style="fill:none;stroke:#FFFFFF;" d="M23.712,4.377c0,0,1.314,1.855,1.314,4.427c0,2.714-2.629,6.227-2.629,9.2
		c0,3.395,1.314,6.087,1.314,6.087"/>
	<path style="fill:none;stroke:#FFFFFF;" d="M19.042,4.377c0,0,1.314,1.855,1.314,4.427c0,2.714-2.629,6.227-2.629,9.2
		c0,3.395,1.314,6.087,1.314,6.087"/>
	<path style="fill:none;stroke:#FFFFFF;" d="M14.373,4.377c0,0,1.314,1.855,1.314,4.427c0,2.714-2.629,6.227-2.629,9.2
		c0,3.395,1.314,6.087,1.314,6.087"/>
	<path style="fill:none;stroke:#FFFFFF;" d="M9.704,4.377c0,0,1.314,1.855,1.314,4.427c0,2.714-2.629,6.227-2.629,9.2
		c0,3.395,1.314,6.087,1.314,6.087"/>
	<path style="fill:none;stroke:#FFFFFF;" d="M47.058,4.377c0,0,1.314,1.855,1.314,4.427c0,2.714-2.629,6.227-2.629,9.2
		c0,3.395,1.314,6.087,1.314,6.087"/>
	<path style="fill:none;stroke:#FFFFFF;" d="M42.389,4.377c0,0,1.314,1.855,1.314,4.427c0,2.714-2.629,6.227-2.629,9.2
		c0,3.395,1.314,6.087,1.314,6.087"/>
	<path style="fill:none;stroke:#FFFFFF;" d="M37.72,4.377c0,0,1.314,1.855,1.314,4.427c0,2.714-2.629,6.227-2.629,9.2
		c0,3.395,1.314,6.087,1.314,6.087"/>
	<path style="fill:none;stroke:#FFFFFF;" d="M33.05,4.377c0,0,1.314,1.855,1.314,4.427c0,2.714-2.629,6.227-2.629,9.2
		c0,3.395,1.314,6.087,1.314,6.087"/>
</g>
<g id="Layer_1">
</g>
</svg>
