<?xml version="1.0" encoding="iso-8859-1"?>
<!-- Generator: Adobe Illustrator 24.2.0, SVG Export Plug-In . SVG Version: 6.00 Build 0)  -->
<svg version="1.1" xmlns="http://www.w3.org/2000/svg" xmlns:xlink="http://www.w3.org/1999/xlink" x="0px" y="0px"
	 viewBox="0 0 56.693 56.693" style="enable-background:new 0 0 56.693 56.693;" xml:space="preserve">
<g id="bed-level">
	<line style="fill:none;stroke:#FFFFFF;stroke-miterlimit:10;" x1="43.239" y1="34.476" x2="43.239" y2="19.865"/>
	<g>
		<g>
			<line style="fill:none;stroke:#FFFFFF;stroke-width:0.5;stroke-miterlimit:10;" x1="31.546" y1="7.624" x2="31.546" y2="9.602"/>
			<line style="fill:none;stroke:#FFFFFF;stroke-width:0.5;stroke-miterlimit:10;" x1="24.641" y1="7.624" x2="24.641" y2="9.602"/>
			<path style="fill:#FFFFFF;" d="M28.094,8.958c0.737,0,1.334-0.597,1.334-1.334H26.76C26.76,8.361,27.357,8.958,28.094,8.958z"/>
			
				<rect x="22.783" y="7.624" style="fill:none;stroke:#FFFFFF;stroke-width:0.5;stroke-miterlimit:10;" width="10.912" height="1.978"/>
		</g>
		<g>
			
				<line style="fill:none;stroke:#FFFFFF;stroke-width:0.5;stroke-miterlimit:10;" x1="43.865" y1="9.429" x2="45.378" y2="10.942"/>
			
				<line style="fill:none;stroke:#FFFFFF;stroke-width:0.5;stroke-miterlimit:10;" x1="41.048" y1="12.245" x2="42.562" y2="13.759"/>
			
				<rect x="40.125" y="10.464" transform="matrix(0.7071 -0.7071 0.7071 0.7071 4.518 33.9767)" style="fill:none;stroke:#FFFFFF;stroke-width:0.5;stroke-miterlimit:10;" width="6.294" height="2.14"/>
			<circle style="fill:#FFFFFF;" cx="43.272" cy="11.535" r="0.998"/>
			<circle style="fill:none;stroke:#FFFFFF;stroke-width:0.5;stroke-miterlimit:10;" cx="43.239" cy="11.569" r="4.012"/>
		</g>
		<g>
			<line style="fill:none;stroke:#FFFFFF;stroke-width:0.5;stroke-miterlimit:10;" x1="12.168" y1="9.613" x2="14.309" y2="9.613"/>
			
				<line style="fill:none;stroke:#FFFFFF;stroke-width:0.5;stroke-miterlimit:10;" x1="12.168" y1="13.596" x2="14.309" y2="13.596"/>
			
				<rect x="10.092" y="10.45" transform="matrix(6.123234e-17 -1 1 6.123234e-17 1.7179 24.7592)" style="fill:none;stroke:#FFFFFF;stroke-width:0.5;stroke-miterlimit:10;" width="6.294" height="2.14"/>
			<circle style="fill:#FFFFFF;" cx="13.239" cy="11.521" r="0.998"/>
			<circle style="fill:none;stroke:#FFFFFF;stroke-width:0.5;stroke-miterlimit:10;" cx="13.239" cy="11.569" r="4.012"/>
		</g>
		<polygon style="fill:none;stroke:#FFFFFF;stroke-miterlimit:10;" points="33.694,7.624 37.698,6.701 52.921,6.701 52.921,16.627 
			28.383,16.627 3.846,16.627 3.846,6.701 19.069,6.701 22.783,7.624 		"/>
		<line style="fill:none;stroke:#FFFFFF;stroke-width:0.5;stroke-miterlimit:10;" x1="7.383" y1="16.627" x2="7.383" y2="6.701"/>
		<line style="fill:none;stroke:#FFFFFF;stroke-width:0.5;stroke-miterlimit:10;" x1="49.383" y1="16.627" x2="49.383" y2="6.701"/>
	</g>
	<polygon style="fill:#FFFFFF;" points="43.239,36.828 43.239,36.828 40.739,31.828 45.739,31.828 	"/>
	<line style="fill:none;stroke:#FFFFFF;stroke-miterlimit:10;" x1="28.239" y1="42.653" x2="28.239" y2="19.986"/>
	<polygon style="fill:#FFFFFF;" points="28.239,45.005 28.239,45.005 25.739,40.005 30.739,40.005 	"/>
	<line style="fill:none;stroke:#FFFFFF;stroke-miterlimit:10;" x1="13.239" y1="34.597" x2="13.239" y2="19.986"/>
	<polygon style="fill:#FFFFFF;" points="13.239,36.949 13.239,36.949 10.739,31.949 15.739,31.949 	"/>
	<polygon style="fill:none;stroke:#FFFFFF;" points="50.069,26.859 6.624,26.859 3.195,48.442 3.195,52.316 9.704,52.316 
		9.704,48.442 46.989,48.442 46.989,52.316 53.498,52.316 53.498,48.442 	"/>
	<polygon style="fill:none;stroke:#FFFFFF;stroke-width:0.5;" points="50.932,46.643 48.338,28.606 8.355,28.606 5.83,46.643 	"/>
	<path style="fill:none;stroke:#FFFFFF;stroke-miterlimit:10;" d="M53.304,56.138H3.389c-1.566,0-2.835-1.269-2.835-2.835V3.389
		c0-1.566,1.269-2.835,2.835-2.835h49.914c1.566,0,2.835,1.269,2.835,2.835v49.914C56.138,54.869,54.869,56.138,53.304,56.138z"/>
</g>
<g id="Layer_1">
</g>
</svg>
