<?xml version="1.0" encoding="iso-8859-1"?>
<!-- Generator: Adobe Illustrator 24.2.0, SVG Export Plug-In . SVG Version: 6.00 Build 0)  -->
<svg version="1.1" xmlns="http://www.w3.org/2000/svg" xmlns:xlink="http://www.w3.org/1999/xlink" x="0px" y="0px"
	 viewBox="0 0 56.693 56.693" style="enable-background:new 0 0 56.693 56.693;" xml:space="preserve">
<g id="control">
	<path style="fill:#FFFFFF;" d="M46.877,29.096l6.871-1.211l-1.341-7.603L45.55,21.49c-0.653-1.614-1.529-3.111-2.586-4.462
		l4.481-5.341l-5.914-4.962l-4.473,5.33c-1.506-0.802-3.135-1.404-4.852-1.767V3.331h-7.72v6.957
		c-1.718,0.363-3.346,0.965-4.852,1.767l-4.473-5.33l-5.914,4.962l4.481,5.341c-1.057,1.351-1.933,2.848-2.586,4.462l-6.856-1.209
		l-1.341,7.603l6.871,1.211c0.062,1.767,0.358,3.473,0.88,5.081l-6.027,3.48l3.86,6.686l6.042-3.488
		c1.153,1.28,2.478,2.396,3.945,3.315l-2.385,6.552l7.255,2.64l2.386-6.554c0.844,0.117,1.7,0.199,2.576,0.199
		c0.877,0,1.732-0.082,2.576-0.199l2.386,6.554l7.255-2.64l-2.385-6.552c1.467-0.919,2.791-2.035,3.945-3.314l6.042,3.488
		l3.86-6.686l-6.027-3.48C46.519,32.569,46.815,30.863,46.877,29.096z M28.346,41.205c-7.101,0-12.858-5.757-12.858-12.858
		s5.757-12.858,12.858-12.858s12.858,5.757,12.858,12.858S35.448,41.205,28.346,41.205z"/>
	<path style="fill:none;stroke:#FFFFFF;stroke-miterlimit:10;" d="M53.304,56.138H3.389c-1.566,0-2.835-1.269-2.835-2.835V3.389
		c0-1.566,1.269-2.835,2.835-2.835h49.914c1.566,0,2.835,1.269,2.835,2.835v49.914C56.138,54.869,54.869,56.138,53.304,56.138z"/>
</g>
<g id="Layer_1">
</g>
</svg>
