<?xml version="1.0" encoding="iso-8859-1"?>
<!-- Generator: Adobe Illustrator 24.2.0, SVG Export Plug-In . SVG Version: 6.00 Build 0)  -->
<svg version="1.1" xmlns="http://www.w3.org/2000/svg" xmlns:xlink="http://www.w3.org/1999/xlink" x="0px" y="0px"
	 viewBox="0 0 56.693 56.693" style="enable-background:new 0 0 56.693 56.693;" xml:space="preserve">
<g id="cooldown">
	<g>
		<line style="fill:none;stroke:#3498DB;stroke-width:2;stroke-miterlimit:10;" x1="28.346" y1="19.726" x2="28.346" y2="1.449"/>
		<line style="fill:none;stroke:#3498DB;stroke-width:2;stroke-miterlimit:10;" x1="35.727" y1="3.312" x2="28.346" y2="10.692"/>
		<line style="fill:none;stroke:#3498DB;stroke-width:2;stroke-miterlimit:10;" x1="20.966" y1="3.312" x2="28.346" y2="10.692"/>
		<line style="fill:none;stroke:#3498DB;stroke-width:2;stroke-miterlimit:10;" x1="35.727" y1="10.075" x2="28.346" y2="17.456"/>
		<line style="fill:none;stroke:#3498DB;stroke-width:2;stroke-miterlimit:10;" x1="20.966" y1="10.075" x2="28.346" y2="17.456"/>
		
			<rect x="22.251" y="22.251" transform="matrix(0.7071 0.7071 -0.7071 0.7071 28.3465 -11.7415)" style="fill:none;stroke:#3498DB;stroke-width:2;stroke-miterlimit:10;" width="12.191" height="12.191"/>
		<line style="fill:none;stroke:#3498DB;stroke-width:2;stroke-miterlimit:10;" x1="22.881" y1="25.191" x2="5.053" y2="14.898"/>
		<line style="fill:none;stroke:#3498DB;stroke-width:2;stroke-miterlimit:10;" x1="10.356" y1="9.437" x2="13.058" y2="19.519"/>
		<line style="fill:none;stroke:#3498DB;stroke-width:2;stroke-miterlimit:10;" x1="2.975" y1="22.221" x2="13.058" y2="19.519"/>
		<line style="fill:none;stroke:#3498DB;stroke-width:2;stroke-miterlimit:10;" x1="16.214" y1="12.819" x2="18.915" y2="22.901"/>
		<line style="fill:none;stroke:#3498DB;stroke-width:2;stroke-miterlimit:10;" x1="8.833" y1="25.603" x2="18.915" y2="22.901"/>
		<line style="fill:none;stroke:#3498DB;stroke-width:2;stroke-miterlimit:10;" x1="22.881" y1="31.502" x2="5.053" y2="41.795"/>
		<line style="fill:none;stroke:#3498DB;stroke-width:2;stroke-miterlimit:10;" x1="2.975" y1="34.472" x2="13.058" y2="37.174"/>
		<line style="fill:none;stroke:#3498DB;stroke-width:2;stroke-miterlimit:10;" x1="10.356" y1="47.256" x2="13.058" y2="37.174"/>
		<line style="fill:none;stroke:#3498DB;stroke-width:2;stroke-miterlimit:10;" x1="8.833" y1="31.09" x2="18.915" y2="33.792"/>
		<line style="fill:none;stroke:#3498DB;stroke-width:2;stroke-miterlimit:10;" x1="16.214" y1="43.874" x2="18.915" y2="33.792"/>
		<line style="fill:none;stroke:#3498DB;stroke-width:2;stroke-miterlimit:10;" x1="28.346" y1="36.967" x2="28.346" y2="55.244"/>
		<line style="fill:none;stroke:#3498DB;stroke-width:2;stroke-miterlimit:10;" x1="20.966" y1="53.381" x2="28.346" y2="46.001"/>
		<line style="fill:none;stroke:#3498DB;stroke-width:2;stroke-miterlimit:10;" x1="35.727" y1="53.381" x2="28.346" y2="46.001"/>
		<line style="fill:none;stroke:#3498DB;stroke-width:2;stroke-miterlimit:10;" x1="20.966" y1="46.618" x2="28.346" y2="39.237"/>
		<line style="fill:none;stroke:#3498DB;stroke-width:2;stroke-miterlimit:10;" x1="35.727" y1="46.618" x2="28.346" y2="39.237"/>
		
			<rect x="22.251" y="22.251" transform="matrix(-0.7071 -0.7071 0.7071 -0.7071 28.3465 68.4344)" style="fill:none;stroke:#3498DB;stroke-width:2;stroke-miterlimit:10;" width="12.191" height="12.191"/>
		<line style="fill:none;stroke:#3498DB;stroke-width:2;stroke-miterlimit:10;" x1="33.812" y1="31.502" x2="51.64" y2="41.795"/>
		<line style="fill:none;stroke:#3498DB;stroke-width:2;stroke-miterlimit:10;" x1="46.337" y1="47.256" x2="43.635" y2="37.174"/>
		<line style="fill:none;stroke:#3498DB;stroke-width:2;stroke-miterlimit:10;" x1="53.718" y1="34.472" x2="43.635" y2="37.174"/>
		<line style="fill:none;stroke:#3498DB;stroke-width:2;stroke-miterlimit:10;" x1="40.479" y1="43.874" x2="37.778" y2="33.792"/>
		<line style="fill:none;stroke:#3498DB;stroke-width:2;stroke-miterlimit:10;" x1="47.86" y1="31.09" x2="37.778" y2="33.792"/>
		<line style="fill:none;stroke:#3498DB;stroke-width:2;stroke-miterlimit:10;" x1="33.812" y1="25.191" x2="51.64" y2="14.898"/>
		<line style="fill:none;stroke:#3498DB;stroke-width:2;stroke-miterlimit:10;" x1="53.718" y1="22.221" x2="43.635" y2="19.519"/>
		<line style="fill:none;stroke:#3498DB;stroke-width:2;stroke-miterlimit:10;" x1="46.337" y1="9.437" x2="43.635" y2="19.519"/>
		<line style="fill:none;stroke:#3498DB;stroke-width:2;stroke-miterlimit:10;" x1="47.86" y1="25.603" x2="37.778" y2="22.901"/>
		<line style="fill:none;stroke:#3498DB;stroke-width:2;stroke-miterlimit:10;" x1="40.479" y1="12.819" x2="37.778" y2="22.901"/>
		<line style="fill:none;stroke:#3498DB;stroke-width:2;stroke-miterlimit:10;" x1="28.346" y1="19.726" x2="28.346" y2="1.449"/>
		<line style="fill:none;stroke:#3498DB;stroke-width:2;stroke-miterlimit:10;" x1="35.727" y1="3.312" x2="28.346" y2="10.692"/>
		<line style="fill:none;stroke:#3498DB;stroke-width:2;stroke-miterlimit:10;" x1="20.966" y1="3.312" x2="28.346" y2="10.692"/>
		<line style="fill:none;stroke:#3498DB;stroke-width:2;stroke-miterlimit:10;" x1="35.727" y1="10.075" x2="28.346" y2="17.456"/>
		<line style="fill:none;stroke:#3498DB;stroke-width:2;stroke-miterlimit:10;" x1="20.966" y1="10.075" x2="28.346" y2="17.456"/>
		
			<rect x="22.251" y="22.251" transform="matrix(0.7071 0.7071 -0.7071 0.7071 28.3465 -11.7415)" style="fill:none;stroke:#3498DB;stroke-width:2;stroke-miterlimit:10;" width="12.191" height="12.191"/>
	</g>
	<path style="fill:none;stroke:#FFFFFF;stroke-miterlimit:10;" d="M53.304,56.138H3.389c-1.566,0-2.835-1.269-2.835-2.835V3.389
		c0-1.566,1.269-2.835,2.835-2.835h49.914c1.566,0,2.835,1.269,2.835,2.835v49.914C56.138,54.869,54.869,56.138,53.304,56.138z"/>
</g>
<g id="Layer_1">
</g>
</svg>
