<?xml version="1.0" encoding="iso-8859-1"?>
<!-- Generator: Adobe Illustrator 24.2.0, SVG Export Plug-In . SVG Version: 6.00 Build 0)  -->
<svg version="1.1" xmlns="http://www.w3.org/2000/svg" xmlns:xlink="http://www.w3.org/1999/xlink" x="0px" y="0px"
	 viewBox="0 0 56.693 56.693" style="enable-background:new 0 0 56.693 56.693;" xml:space="preserve">
<g id="custom-script">
	<g id="Group" transform="translate(275.000000, 300.000000)">
		<g id="computing-script" transform="translate(0.000000, 0.000000)">
			<path id="Shape_2_" style="fill:#FFFFFF;" d="M-239.856-297.684h-21.904c-4.497,0-8.157,3.276-8.157,7.302v37.457
				c0,4.026,3.66,7.302,8.157,7.302h30.212c4.497,0,8.157-3.276,8.157-7.302v-27.856L-239.856-297.684z M-238.95-294.696
				 M-225.202-279.97v27.044c-0.001,3.133-2.847,5.68-6.346,5.68h-30.212c-3.499,0-6.345-2.548-6.345-5.679v-37.457
				c0-3.132,2.846-5.679,6.345-5.679h20.998L-225.202-279.97z"/>
		</g>
	</g>
	<polygon style="fill:#FFFFFF;" points="28.346,13.293 16.346,30.338 16.346,47.384 40.346,47.384 40.346,30.338 	"/>
	<path style="fill:none;stroke:#FFFFFF;stroke-miterlimit:10;" d="M53.304,56.138H3.389c-1.566,0-2.835-1.269-2.835-2.835V3.389
		c0-1.566,1.269-2.835,2.835-2.835h49.914c1.566,0,2.835,1.269,2.835,2.835v49.914C56.138,54.869,54.869,56.138,53.304,56.138z"/>
</g>
<g id="Layer_1">
</g>
</svg>
