<?xml version="1.0" encoding="iso-8859-1"?>
<!-- Generator: Adobe Illustrator 24.2.0, SVG Export Plug-In . SVG Version: 6.00 Build 0)  -->
<svg version="1.1" xmlns="http://www.w3.org/2000/svg" xmlns:xlink="http://www.w3.org/1999/xlink" x="0px" y="0px"
	 viewBox="0 0 56.693 56.693" style="enable-background:new 0 0 56.693 56.693;" xml:space="preserve">
<g id="extruder">
	<path style="fill:none;stroke:#FFFFFF;" d="M42.154,29.19c0.508-0.746,0.944-1.543,1.326-2.37h7.645v-3.63h-6.446
		c0.155-0.771,0.237-1.565,0.281-2.37h6.165v-3.63h-6.367c-0.136-0.811-0.322-1.604-0.572-2.37h6.939v-3.63h-8.649
		c-0.531-0.846-1.137-1.637-1.809-2.37h10.457V6.099c0-1.566-1.269-2.835-2.835-2.835H8.774c-1.566,0-2.835,1.269-2.835,2.835v2.721
		h10.457c-0.672,0.733-1.277,1.524-1.809,2.37H5.939v3.63h6.939c-0.25,0.766-0.436,1.559-0.572,2.37H5.939v3.63h6.165
		c0.043,0.805,0.126,1.6,0.281,2.37H5.939v3.63h7.645c0.382,0.827,0.818,1.624,1.326,2.37H5.939v4.573
		c0,1.566,1.269,2.835,2.835,2.835h11.869v4h-9.796v11h7.574v0.926h3.269l6.694,2.593l6.694-2.593h3.566v-0.926h7.574v-11h-9.796v-4
		H48.29c1.566,0,2.835-1.269,2.835-2.835V29.19H42.154z M28.532,31.931c-6.627,0-12-5.373-12-12c0-6.627,5.373-12,12-12
		s12,5.373,12,12C40.532,26.558,35.159,31.931,28.532,31.931z"/>
	<path style="fill:none;stroke:#FFFFFF;stroke-miterlimit:10;" d="M53.304,56.138H3.389c-1.566,0-2.835-1.269-2.835-2.835V3.389
		c0-1.566,1.269-2.835,2.835-2.835h49.914c1.566,0,2.835,1.269,2.835,2.835v49.914C56.138,54.869,54.869,56.138,53.304,56.138z"/>
</g>
<g id="Layer_1">
</g>
</svg>
