<?xml version="1.0" encoding="iso-8859-1"?>
<!-- Generator: Adobe Illustrator 24.2.0, SVG Export Plug-In . SVG Version: 6.00 Build 0)  -->
<svg version="1.1" xmlns="http://www.w3.org/2000/svg" xmlns:xlink="http://www.w3.org/1999/xlink" x="0px" y="0px"
	 viewBox="0 0 56.693 56.693" style="enable-background:new 0 0 56.693 56.693;" xml:space="preserve">
<g id="fan-off">
	<path style="fill:#FFFFFF;" d="M47.753,35.596c0,0-1.124-0.3-4.202-1.763c-2.398-1.139-4.968-2.749-6.305-3.62
		c0.073-0.402,0.116-0.814,0.132-1.233l9.625,0.152c1.758-0.31,2.75-2.603,2.354-5.267l-0.326-1.253
		c-0.247-0.635-0.737-1.089-1.288-0.992c0,0-1.054,0.492-4.352,1.351c-2.569,0.669-5.572,1.087-7.156,1.279
		c-0.206-0.361-0.437-0.704-0.69-1.031l7.469-6.069c1.148-1.368,0.433-3.762-1.582-5.548l-1.055-0.75
		c-0.598-0.328-1.264-0.361-1.624,0.068c0,0-0.491,1.055-2.466,3.832c-1.539,2.165-3.572,4.417-4.661,5.582
		c-0.385-0.143-0.78-0.265-1.188-0.354l1.82-9.444c0-1.786-2.086-3.16-4.778-3.233l-1.29,0.103
		c-0.669,0.133-1.201,0.536-1.201,1.096c0,0,0.302,1.124,0.574,4.521c0.212,2.648,0.103,5.679,0.017,7.272
		c-0.392,0.14-0.773,0.302-1.137,0.493l-4.677-8.405c-1.148-1.368-3.629-1.08-5.739,0.595l-0.922,0.908
		c-0.427,0.532-0.575,1.183-0.215,1.612c0,0,0.954,0.667,3.346,3.094c1.865,1.892,3.729,4.285,4.688,5.56
		c-0.209,0.355-0.398,0.723-0.556,1.108l-8.984-3.432c-1.758-0.31-3.474,1.506-4.014,4.144l-0.122,1.289
		c0.015,0.682,0.32,1.276,0.871,1.373c0,0,1.159-0.102,4.552,0.219c2.645,0.251,5.612,0.885,7.165,1.246
		c0.069,0.412,0.16,0.816,0.284,1.206l-9.086,3.145c-1.546,0.893-1.694,3.387-0.411,5.755l0.735,1.066
		c0.45,0.512,1.065,0.772,1.55,0.492c0,0,0.822-0.823,3.628-2.758c2.185-1.507,4.864-2.927,6.287-3.65
		c0.315,0.268,0.65,0.511,1,0.734l-4.943,8.256c-0.611,1.678,0.879,3.683,3.384,4.672l1.248,0.344
		c0.674,0.103,1.312-0.093,1.503-0.619c0,0,0.101-1.159,1.006-4.445c0.705-2.558,1.843-5.366,2.469-6.834
		c0.02,0,0.039,0.003,0.059,0.003c0.401,0,0.793-0.036,1.18-0.088l1.521,9.503c0.611,1.678,3.041,2.256,5.596,1.404l1.177-0.538
		c0.583-0.354,0.945-0.915,0.753-1.441c0,0-0.668-0.953-2.086-4.052c-1.103-2.411-2.036-5.292-2.501-6.82
		c0.32-0.265,0.613-0.558,0.893-0.864l7.275,6.303c1.546,0.893,3.78-0.226,5.189-2.521l0.556-1.169
		C48.321,36.538,48.238,35.876,47.753,35.596z"/>
	<circle style="fill:#E74C3C;stroke:#E74C3C;" cx="28.346" cy="28.346" r="4.963"/>
	<path style="fill:none;stroke:#FFFFFF;" d="M28.346,2.55c14.247,0,25.796,11.549,25.796,25.796"/>
	<path style="fill:#FFFFFF;stroke:#FFFFFF;" d="M22.532,2.553l5.814-0.003v2.417c0,0.337-0.35,0.559-0.655,0.417l-5.245-2.445
		C22.25,2.848,22.315,2.553,22.532,2.553z"/>
	<path style="fill:#FFFFFF;stroke:#FFFFFF;" d="M54.14,34.16l0.003-5.814h-2.417c-0.337,0-0.559,0.35-0.417,0.655l2.445,5.245
		C53.845,34.443,54.14,34.378,54.14,34.16z"/>
	<path style="fill:none;stroke:#FFFFFF;" d="M28.346,54.143C14.1,54.143,2.55,42.593,2.55,28.346"/>
	<path style="fill:#FFFFFF;stroke:#FFFFFF;" d="M34.16,54.14l-5.814,0.003v-2.417c0-0.337,0.35-0.559,0.655-0.417l5.245,2.445
		C34.443,53.845,34.378,54.14,34.16,54.14z"/>
	<path style="fill:#FFFFFF;stroke:#FFFFFF;" d="M2.553,22.532L2.55,28.346h2.417c0.337,0,0.559-0.35,0.417-0.655l-2.445-5.245
		C2.848,22.25,2.553,22.315,2.553,22.532z"/>
	<path style="fill:none;stroke:#FFFFFF;stroke-miterlimit:10;" d="M53.304,56.138H3.389c-1.566,0-2.835-1.269-2.835-2.835V3.389
		c0-1.566,1.269-2.835,2.835-2.835h49.914c1.566,0,2.835,1.269,2.835,2.835v49.914C56.138,54.869,54.869,56.138,53.304,56.138z"/>
</g>
<g id="Layer_1">
</g>
</svg>
