<?xml version="1.0" encoding="iso-8859-1"?>
<!-- Generator: Adobe Illustrator 24.2.0, SVG Export Plug-In . SVG Version: 6.00 Build 0)  -->
<svg version="1.1" xmlns="http://www.w3.org/2000/svg" xmlns:xlink="http://www.w3.org/1999/xlink" x="0px" y="0px"
	 viewBox="0 0 56.693 56.693" style="enable-background:new 0 0 56.693 56.693;" xml:space="preserve">
<g id="filament">
	<path style="fill:none;stroke:#FFFFFF;" d="M28.035,36.224c0.35-0.513,0.649-1.061,0.912-1.63h5.258v-2.497h-4.434
		c0.106-0.53,0.163-1.077,0.193-1.63h4.241v-2.497h-4.379c-0.094-0.558-0.222-1.103-0.394-1.63h4.773v-2.497h-5.949
		c-0.366-0.582-0.782-1.126-1.244-1.63h7.193V20.34c0-1.077-0.873-1.95-1.95-1.95H5.074c-1.077,0-1.95,0.873-1.95,1.95v1.872h7.193
		c-0.462,0.504-0.879,1.049-1.244,1.63H3.124v2.497h4.773c-0.172,0.527-0.3,1.073-0.394,1.63H3.124v2.497h4.241
		c0.03,0.554,0.087,1.1,0.193,1.63H3.124v2.497h5.258c0.263,0.569,0.562,1.117,0.912,1.63h-6.17v3.145c0,1.077,0.873,1.95,1.95,1.95
		h8.164v2.751H6.5v7.566h5.21v0.637h2.249l4.604,1.783l4.604-1.783h2.453v-0.637h5.21V44.07h-6.738v-2.751h8.164
		c1.077,0,1.95-0.873,1.95-1.95v-3.145H28.035z M18.665,38.109c-4.559,0-8.254-3.696-8.254-8.254c0-4.559,3.696-8.254,8.254-8.254
		s8.254,3.696,8.254,8.254C26.919,34.413,23.223,38.109,18.665,38.109z"/>
	<path style="fill:#FFFFFF;" d="M49.463,23.227l5.657-0.997l-1.104-6.26l-5.645,0.995c-0.538-1.329-1.259-2.561-2.13-3.674
		l3.69-4.397l-4.869-4.086l-3.683,4.389c-1.24-0.661-2.581-1.156-3.995-1.455V2.013h-6.357v5.728
		c-1.414,0.299-2.755,0.794-3.995,1.455l-3.683-4.389l-4.87,4.086l3.69,4.397c-0.623,0.796-1.165,1.656-1.623,2.566h5.506
		c1.942-2.342,4.873-3.834,8.153-3.834c5.847,0,10.587,4.74,10.587,10.587c0,5.152-3.682,9.44-8.557,10.388v4.823
		c0.03-0.004,0.061-0.006,0.091-0.01l1.964,5.397l5.973-2.174L42.3,35.638c1.208-0.757,2.298-1.675,3.248-2.729l4.975,2.872
		l3.178-5.505l-4.963-2.865C49.168,26.086,49.412,24.682,49.463,23.227z"/>
	<path style="fill:none;stroke:#FFFFFF;stroke-miterlimit:10;" d="M53.304,56.138H3.389c-1.566,0-2.835-1.269-2.835-2.835V3.389
		c0-1.566,1.269-2.835,2.835-2.835h49.914c1.566,0,2.835,1.269,2.835,2.835v49.914C56.138,54.869,54.869,56.138,53.304,56.138z"/>
</g>
<g id="Layer_1">
</g>
</svg>
