<?xml version="1.0" encoding="iso-8859-1"?>
<!-- Generator: Adobe Illustrator 24.2.0, SVG Export Plug-In . SVG Version: 6.00 Build 0)  -->
<svg version="1.1" xmlns="http://www.w3.org/2000/svg" xmlns:xlink="http://www.w3.org/1999/xlink" x="0px" y="0px"
	 viewBox="0 0 56.693 56.693" style="enable-background:new 0 0 56.693 56.693;" xml:space="preserve">
<g id="files">
	<g id="Group_2_" transform="translate(275.000000, 300.000000)">
		<g id="computing-script_2_" transform="translate(0.000000, 0.000000)">
			<path id="Shape_3_" style="fill:#FFFFFF;" d="M-249.789-283.762h-15.886c-3.262,0-5.916,2.376-5.916,5.296v27.167
				c0,2.92,2.654,5.296,5.916,5.296h21.912c3.262,0,5.916-2.376,5.916-5.296v-20.204L-249.789-283.762z M-249.132-281.595
				 M-239.161-270.915v19.615c-0.001,2.272-2.065,4.12-4.602,4.12h-21.912c-2.537,0-4.602-1.848-4.602-4.119v-27.167
				c0-2.271,2.064-4.119,4.602-4.119h15.229L-239.161-270.915z"/>
		</g>
	</g>
	<line style="fill:none;stroke:#FFFFFF;stroke-miterlimit:10;" x1="9.483" y1="46.286" x2="31.08" y2="46.286"/>
	<line style="fill:none;stroke:#FFFFFF;stroke-miterlimit:10;" x1="9.483" y1="44.11" x2="31.08" y2="44.11"/>
	<line style="fill:none;stroke:#FFFFFF;stroke-miterlimit:10;" x1="9.483" y1="41.934" x2="31.08" y2="41.934"/>
	<line style="fill:none;stroke:#FFFFFF;stroke-miterlimit:10;" x1="9.483" y1="39.758" x2="31.08" y2="39.758"/>
	<line style="fill:none;stroke:#FFFFFF;stroke-miterlimit:10;" x1="9.483" y1="37.582" x2="31.08" y2="37.582"/>
	<line style="fill:none;stroke:#FFFFFF;stroke-miterlimit:10;" x1="9.483" y1="35.407" x2="31.08" y2="35.407"/>
	<line style="fill:none;stroke:#FFFFFF;stroke-miterlimit:10;" x1="9.483" y1="33.231" x2="19.556" y2="33.231"/>
	<line style="fill:none;stroke:#FFFFFF;stroke-miterlimit:10;" x1="9.483" y1="31.055" x2="19.556" y2="31.055"/>
	<path style="fill:#FFFFFF;" d="M40.395,2.696H24.509c-3.262,0-5.916,2.376-5.916,5.296v5.683c0.438,0,0.877,0,1.315,0V7.992
		c0-2.271,2.064-4.119,4.602-4.119h15.229l11.285,11.671v19.615c-0.001,2.272-2.065,4.12-4.602,4.12h-7.101c0,0.395,0,0.787,0,1.177
		h7.101c3.262,0,5.916-2.376,5.916-5.296V14.955L40.395,2.696z"/>
	<path style="fill:none;stroke:#FFFFFF;stroke-miterlimit:10;" d="M53.304,56.138H3.389c-1.566,0-2.835-1.269-2.835-2.835V3.389
		c0-1.566,1.269-2.835,2.835-2.835h49.914c1.566,0,2.835,1.269,2.835,2.835v49.914C56.138,54.869,54.869,56.138,53.304,56.138z"/>
</g>
<g id="Layer_1">
</g>
</svg>
