<?xml version="1.0" encoding="iso-8859-1"?>
<!-- Generator: Adobe Illustrator 24.2.0, SVG Export Plug-In . SVG Version: 6.00 Build 0)  -->
<svg version="1.1" xmlns="http://www.w3.org/2000/svg" xmlns:xlink="http://www.w3.org/1999/xlink" x="0px" y="0px"
	 viewBox="0 0 56.693 56.693" style="enable-background:new 0 0 56.693 56.693;" xml:space="preserve">
<g id="folder">
	<polygon style="fill:none;stroke:#FFFFFF;stroke-miterlimit:10;" points="46.754,52.782 3.198,52.782 10.605,27.227 54.161,27.227 
			"/>
	<line style="fill:none;stroke:#FFFFFF;stroke-miterlimit:10;" x1="14.083" y1="24.362" x2="35.87" y2="24.362"/>
	<line style="fill:none;stroke:#FFFFFF;stroke-miterlimit:10;" x1="14.083" y1="22.167" x2="35.87" y2="22.167"/>
	<path style="fill:none;stroke:#FFFFFF;stroke-miterlimit:10;" d="M44.384,21.375"/>
	<path style="fill:none;stroke:#FFFFFF;stroke-miterlimit:10;" d="M46.754,25.079c0-4.171,0-7.111,0-7.111h-2.371"/>
	<polyline style="fill:none;stroke:#FFFFFF;stroke-miterlimit:10;" points="6.976,11.968 3.198,11.968 3.198,52.782 46.754,52.782 	
		"/>
	<path style="fill:none;stroke:#FFFFFF;stroke-miterlimit:10;" d="M6.976,21.375"/>
	<path style="fill:#FFFFFF;" d="M10.208,24.362V8.173c0-2.291,2.082-4.155,4.642-4.155h15.363L41.597,15.79v8.572h1.326v-9.165
		L30.875,2.83H14.85c-3.291,0-5.968,2.397-5.968,5.342v16.189H10.208z"/>
	<line style="fill:none;stroke:#FFFFFF;stroke-miterlimit:10;" x1="14.006" y1="19.883" x2="24.168" y2="19.883"/>
	<line style="fill:none;stroke:#FFFFFF;stroke-miterlimit:10;" x1="14.006" y1="17.688" x2="24.168" y2="17.688"/>
	<path style="fill:none;stroke:#FFFFFF;stroke-miterlimit:10;" d="M53.304,56.138H3.389c-1.566,0-2.835-1.269-2.835-2.835V3.389
		c0-1.566,1.269-2.835,2.835-2.835h49.914c1.566,0,2.835,1.269,2.835,2.835v49.914C56.138,54.869,54.869,56.138,53.304,56.138z"/>
</g>
<g id="Layer_1">
</g>
</svg>
