<?xml version="1.0" encoding="iso-8859-1"?>
<!-- Generator: Adobe Illustrator 24.2.0, SVG Export Plug-In . SVG Version: 6.00 Build 0)  -->
<svg version="1.1" xmlns="http://www.w3.org/2000/svg" xmlns:xlink="http://www.w3.org/1999/xlink" x="0px" y="0px"
	 viewBox="0 0 56.693 56.693" style="enable-background:new 0 0 56.693 56.693;" xml:space="preserve">
<g id="heat-up">
	<path style="fill:none;stroke:#FFFFFF;stroke-miterlimit:10;" d="M24.346,32.089V2.865h-12v29.224
		c-3.412,2.045-5.704,5.768-5.704,10.035c0,6.464,5.24,11.704,11.704,11.704c6.464,0,11.704-5.24,11.704-11.704
		C30.05,37.857,27.759,34.134,24.346,32.089z"/>
	<path style="fill:#3498DB;" d="M22.068,35.853V30.19h-7.443v5.663c-2.116,1.268-3.538,3.577-3.538,6.224
		c0,4.009,3.25,7.259,7.259,7.259c4.009,0,7.259-3.25,7.259-7.259C25.606,39.43,24.184,37.121,22.068,35.853z"/>
	<line style="fill:none;stroke:#FFFFFF;stroke-miterlimit:10;" x1="42.363" y1="8.574" x2="42.363" y2="53.828"/>
	<polygon style="fill:#C0392B;" points="42.363,2.865 42.363,2.865 48.432,15.002 36.295,15.002 	"/>
	<polygon style="fill:#F39C12;" points="42.363,22.278 42.363,22.278 48.432,34.415 36.295,34.415 	"/>
	<polygon style="fill:#3498DB;" points="42.363,41.691 42.363,41.691 48.432,53.828 36.295,53.828 	"/>
	<path style="fill:none;stroke:#FFFFFF;stroke-miterlimit:10;" d="M53.304,56.138H3.389c-1.566,0-2.835-1.269-2.835-2.835V3.389
		c0-1.566,1.269-2.835,2.835-2.835h49.914c1.566,0,2.835,1.269,2.835,2.835v49.914C56.138,54.869,54.869,56.138,53.304,56.138z"/>
</g>
<g id="Layer_1">
</g>
</svg>
