<?xml version="1.0" encoding="iso-8859-1"?>
<!-- Generator: Adobe Illustrator 24.2.0, SVG Export Plug-In . SVG Version: 6.00 Build 0)  -->
<svg version="1.1" xmlns="http://www.w3.org/2000/svg" xmlns:xlink="http://www.w3.org/1999/xlink" x="0px" y="0px"
	 viewBox="0 0 56.693 56.693" style="enable-background:new 0 0 56.693 56.693;" xml:space="preserve">
<g id="home-z">
	<line style="fill:none;stroke:#FFFFFF;stroke-width:4;stroke-miterlimit:10;" x1="18.867" y1="38.525" x2="18.867" y2="44.262"/>
	<polygon style="fill:#FFFFFF;" points="18.867,54.068 18.867,54.068 12.799,41.931 24.936,41.931 	"/>
	<g>
		<g>
			<path style="fill:none;stroke:#FFFFFF;stroke-miterlimit:10;" d="M44.845,17.632c-0.78,0-1.417,0.638-1.417,1.417v18.059
				c0,0.78-0.638,1.417-1.417,1.417H16.987c-0.78,0-1.417-0.638-1.417-1.417V19.049c0-0.78-0.638-1.417-1.417-1.417h-1.764
				c-0.78,0-0.902-0.376-0.272-0.835L28.353,4.96c0.63-0.459,1.661-0.459,2.291,0l16.237,11.836c0.63,0.459,0.517,0.835-0.251,0.835
				S44.845,17.632,44.845,17.632z"/>
		</g>
		<polyline style="fill:none;stroke:#FFFFFF;stroke-miterlimit:10;" points="26.867,38.525 26.867,29.666 32.184,29.666 
			32.184,38.525 		"/>
	</g>
	<path style="fill:none;stroke:#FFFFFF;stroke-miterlimit:10;" d="M53.304,56.138H3.389c-1.566,0-2.835-1.269-2.835-2.835V3.389
		c0-1.566,1.269-2.835,2.835-2.835h49.914c1.566,0,2.835,1.269,2.835,2.835v49.914C56.138,54.869,54.869,56.138,53.304,56.138z"/>
	<line style="fill:none;stroke:#FFFFFF;stroke-width:4;stroke-miterlimit:10;" x1="40.184" y1="38.525" x2="40.184" y2="44.262"/>
	<polygon style="fill:#FFFFFF;" points="40.184,54.068 40.184,54.068 34.115,41.931 46.252,41.931 	"/>
</g>
<g id="Layer_1">
</g>
</svg>
