<?xml version="1.0" encoding="iso-8859-1"?>
<!-- Generator: Adobe Illustrator 24.2.0, SVG Export Plug-In . SVG Version: 6.00 Build 0)  -->
<svg version="1.1" xmlns="http://www.w3.org/2000/svg" xmlns:xlink="http://www.w3.org/1999/xlink" x="0px" y="0px"
	 viewBox="0 0 56.693 56.693" style="enable-background:new 0 0 56.693 56.693;" xml:space="preserve">
<g id="home-y">
	<line style="fill:none;stroke:#FFFFFF;stroke-width:4;stroke-miterlimit:10;" x1="12.05" y1="18.545" x2="12.05" y2="50.375"/>
	<polygon style="fill:#FFFFFF;" points="12.05,7.963 12.05,7.963 18.119,20.1 5.982,20.1 	"/>
	<g>
		<g>
			<path style="fill:none;stroke:#FFFFFF;stroke-miterlimit:10;" d="M48.71,19.551c-0.78,0-1.417,0.638-1.417,1.417v22.582
				c0,0.78-0.638,1.417-1.417,1.417H14.821c-0.78,0-1.417-0.638-1.417-1.417V20.969c0-0.78-0.638-1.417-1.417-1.417h-2.76
				c-0.78,0-0.902-0.376-0.272-0.835l20.248-14.76c0.63-0.459,1.661-0.459,2.291,0l20.248,14.76c0.63,0.459,0.508,0.835-0.272,0.835
				H48.71z"/>
		</g>
		<polyline style="fill:none;stroke:#FFFFFF;stroke-miterlimit:10;" points="27.147,44.968 27.147,34.191 33.614,34.191 
			33.614,44.968 		"/>
	</g>
	<path style="fill:none;stroke:#FFFFFF;stroke-miterlimit:10;" d="M53.304,56.138H3.389c-1.566,0-2.835-1.269-2.835-2.835V3.389
		c0-1.566,1.269-2.835,2.835-2.835h49.914c1.566,0,2.835,1.269,2.835,2.835v49.914C56.138,54.869,54.869,56.138,53.304,56.138z"/>
</g>
<g id="Layer_1">
</g>
</svg>
