<?xml version="1.0" encoding="iso-8859-1"?>
<!-- Generator: Adobe Illustrator 24.2.0, SVG Export Plug-In . SVG Version: 6.00 Build 0)  -->
<svg version="1.1" xmlns="http://www.w3.org/2000/svg" xmlns:xlink="http://www.w3.org/1999/xlink" x="0px" y="0px"
	 viewBox="0 0 56.693 56.693" style="enable-background:new 0 0 56.693 56.693;" xml:space="preserve">
<g id="increase">
	<circle style="fill:none;stroke:#2ECC71;stroke-width:2;stroke-miterlimit:10;" cx="28.346" cy="28.346" r="26.056"/>
	<path style="fill:#2ECC71;" d="M44.327,34.458h-31.96c-1.566,0-2.835-1.269-2.835-2.835V25.07c0-1.566,1.269-2.835,2.835-2.835
		h31.96c1.566,0,2.835,1.269,2.835,2.835v6.553C47.161,33.188,45.892,34.458,44.327,34.458z"/>
	<path style="fill:#2ECC71;" d="M22.235,44.327v-31.96c0-1.566,1.269-2.835,2.835-2.835h6.553c1.566,0,2.835,1.269,2.835,2.835
		v31.96c0,1.566-1.269,2.835-2.835,2.835H25.07C23.504,47.161,22.235,45.892,22.235,44.327z"/>
</g>
<g id="Layer_1">
</g>
</svg>
