<?xml version="1.0" encoding="iso-8859-1"?>
<!-- Generator: Adobe Illustrator 24.2.0, SVG Export Plug-In . SVG Version: 6.00 Build 0)  -->
<svg version="1.1" xmlns="http://www.w3.org/2000/svg" xmlns:xlink="http://www.w3.org/1999/xlink" x="0px" y="0px"
	 viewBox="0 0 56.693 56.693" style="enable-background:new 0 0 56.693 56.693;" xml:space="preserve">
<g id="info">
	<path style="fill:none;stroke:#3498DB;stroke-miterlimit:10;" d="M53.304,56.138H3.389c-1.566,0-2.835-1.269-2.835-2.835V3.389
		c0-1.566,1.269-2.835,2.835-2.835h49.914c1.566,0,2.835,1.269,2.835,2.835v49.914C56.138,54.869,54.869,56.138,53.304,56.138z"/>
	<path style="fill:#3498DB;" d="M22.235,44.327V25.062c0-1.566,1.269-2.835,2.835-2.835h6.553c1.566,0,2.835,1.269,2.835,2.835
		v19.265c0,1.566-1.269,2.835-2.835,2.835H25.07C23.504,47.161,22.235,45.892,22.235,44.327z"/>
	<circle style="fill:#3498DB;" cx="28.346" cy="13.319" r="6.111"/>
</g>
<g id="Layer_1">
</g>
</svg>
