<?xml version="1.0" encoding="iso-8859-1"?>
<!-- Generator: Adobe Illustrator 24.2.0, SVG Export Plug-In . SVG Version: 6.00 Build 0)  -->
<svg version="1.1" xmlns="http://www.w3.org/2000/svg" xmlns:xlink="http://www.w3.org/1999/xlink" x="0px" y="0px"
	 viewBox="0 0 56.693 56.693" style="enable-background:new 0 0 56.693 56.693;" xml:space="preserve">
<g id="load">
	<line style="fill:none;stroke:#FFFFFF;stroke-width:4;stroke-miterlimit:10;" x1="18.346" y1="37.193" x2="18.346" y2="5.363"/>
	<polygon style="fill:#FFFFFF;" points="18.346,47.775 18.346,47.775 12.278,35.637 24.415,35.637 	"/>
	<path style="fill:none;stroke:#FFFFFF;stroke-miterlimit:10;" d="M53.304,56.138H3.389c-1.566,0-2.835-1.269-2.835-2.835V3.389
		c0-1.566,1.269-2.835,2.835-2.835h49.914c1.566,0,2.835,1.269,2.835,2.835v49.914C56.138,54.869,54.869,56.138,53.304,56.138z"/>
	<polyline style="fill:none;stroke:#FFFFFF;stroke-miterlimit:10;" points="6.383,28.523 6.383,52.079 50.309,52.079 50.309,28.523 
			"/>
	<line style="fill:none;stroke:#FFFFFF;stroke-width:4;stroke-miterlimit:10;" x1="38.346" y1="37.193" x2="38.346" y2="5.363"/>
	<polygon style="fill:#FFFFFF;" points="38.346,47.775 38.346,47.775 32.278,35.637 44.415,35.637 	"/>
</g>
<g id="Layer_1">
</g>
</svg>
