<?xml version="1.0" encoding="iso-8859-1"?>
<!-- Generator: Adobe Illustrator 24.2.0, SVG Export Plug-In . SVG Version: 6.00 Build 0)  -->
<svg version="1.1" xmlns="http://www.w3.org/2000/svg" xmlns:xlink="http://www.w3.org/1999/xlink" x="0px" y="0px"
	 viewBox="0 0 56.693 56.693" style="enable-background:new 0 0 56.693 56.693;" xml:space="preserve">
<g id="motor-off">
	<rect x="21.309" y="10.054" style="fill:none;stroke:#FFFFFF;stroke-miterlimit:10;" width="24.296" height="36.585"/>
	<path style="fill:none;stroke:#FFFFFF;stroke-miterlimit:10;" d="M51.966,48.948h-4.943c-0.783,0-1.417-0.635-1.417-1.417V9.162
		c0-0.783,0.635-1.417,1.417-1.417h4.943c0.783,0,1.417,0.635,1.417,1.417v38.369C53.384,48.314,52.749,48.948,51.966,48.948z"/>
	<path style="fill:none;stroke:#FFFFFF;stroke-miterlimit:10;" d="M19.892,48.948h-4.943c-0.783,0-1.417-0.635-1.417-1.417V9.162
		c0-0.783,0.635-1.417,1.417-1.417h4.943c0.783,0,1.417,0.635,1.417,1.417v38.369C21.309,48.314,20.675,48.948,19.892,48.948z"/>
	<path style="fill:none;stroke:#FFFFFF;stroke-miterlimit:10;" d="M13.606,35.445h-1c-0.511,0-0.926-0.415-0.926-0.926V22.174
		c0-0.511,0.415-0.926,0.926-0.926h1"/>
	<rect x="3.309" y="27.506" style="fill:#FFFFFF;stroke:#FFFFFF;stroke-miterlimit:10;" width="8.37" height="1.68"/>
	<line style="fill:none;stroke:#FFFFFF;stroke-miterlimit:10;" x1="23.087" y1="28.346" x2="43.532" y2="28.346"/>
	<line style="fill:none;stroke:#FFFFFF;stroke-miterlimit:10;" x1="23.087" y1="22.676" x2="43.532" y2="22.676"/>
	<line style="fill:none;stroke:#FFFFFF;stroke-miterlimit:10;" x1="23.087" y1="34.017" x2="43.532" y2="34.017"/>
	<line style="fill:none;stroke:#FFFFFF;stroke-miterlimit:10;" x1="23.087" y1="16.676" x2="43.532" y2="16.676"/>
	<line style="fill:none;stroke:#FFFFFF;stroke-miterlimit:10;" x1="23.087" y1="40.017" x2="43.532" y2="40.017"/>
	<path style="fill:none;stroke:#FFFFFF;stroke-miterlimit:10;" d="M53.304,56.138H3.389c-1.566,0-2.835-1.269-2.835-2.835V3.389
		c0-1.566,1.269-2.835,2.835-2.835h49.914c1.566,0,2.835,1.269,2.835,2.835v49.914C56.138,54.869,54.869,56.138,53.304,56.138z"/>
</g>
<g id="Layer_1">
</g>
</svg>
