<?xml version="1.0" encoding="iso-8859-1"?>
<!-- Generator: Adobe Illustrator 24.2.0, SVG Export Plug-In . SVG Version: 6.00 Build 0)  -->
<svg version="1.1" xmlns="http://www.w3.org/2000/svg" xmlns:xlink="http://www.w3.org/1999/xlink" x="0px" y="0px"
	 viewBox="0 0 56.693 56.693" style="enable-background:new 0 0 56.693 56.693;" xml:space="preserve">
<g id="move">
	<path style="fill:none;stroke:#FFFFFF;stroke-miterlimit:10;" d="M53.304,56.138H3.389c-1.566,0-2.835-1.269-2.835-2.835V3.389
		c0-1.566,1.269-2.835,2.835-2.835h49.914c1.566,0,2.835,1.269,2.835,2.835v49.914C56.138,54.869,54.869,56.138,53.304,56.138z"/>
	<line style="fill:none;stroke:#FFFFFF;stroke-width:4;stroke-miterlimit:10;" x1="28.346" y1="43.897" x2="28.346" y2="28.346"/>
	<polygon style="fill:#FFFFFF;" points="28.346,54.478 28.346,54.478 22.278,42.341 34.415,42.341 	"/>
	<line style="fill:none;stroke:#FFFFFF;stroke-width:4;stroke-miterlimit:10;" x1="43.897" y1="28.346" x2="28.346" y2="28.346"/>
	<polygon style="fill:#FFFFFF;" points="54.478,28.346 54.478,28.346 42.341,34.415 42.341,22.278 	"/>
	<line style="fill:none;stroke:#FFFFFF;stroke-width:4;stroke-miterlimit:10;" x1="28.346" y1="12.796" x2="28.346" y2="28.346"/>
	<polygon style="fill:#FFFFFF;" points="28.346,2.215 28.346,2.215 34.415,14.352 22.278,14.352 	"/>
	<line style="fill:none;stroke:#FFFFFF;stroke-width:4;stroke-miterlimit:10;" x1="12.796" y1="28.346" x2="28.346" y2="28.346"/>
	<polygon style="fill:#FFFFFF;" points="2.215,28.346 2.215,28.346 14.352,22.278 14.352,34.415 	"/>
	<circle style="fill:#FFFFFF;" cx="28.346" cy="28.381" r="8.481"/>
</g>
<g id="Layer_1">
</g>
</svg>
