<?xml version="1.0" encoding="iso-8859-1"?>
<!-- Generator: Adobe Illustrator 24.2.0, SVG Export Plug-In . SVG Version: 6.00 Build 0)  -->
<svg version="1.1" xmlns="http://www.w3.org/2000/svg" xmlns:xlink="http://www.w3.org/1999/xlink" x="0px" y="0px"
	 viewBox="0 0 56.693 56.693" style="enable-background:new 0 0 56.693 56.693;" xml:space="preserve">
<g id="network-plain">
	<path style="fill:none;stroke:#FFFFFF;stroke-miterlimit:10;" d="M17.865,35.634c0,0,5.371-2.667,10.481-2.667
		c4.962,0,10.481,2.667,10.481,2.667"/>
	<circle style="fill:#FFFFFF;stroke:#FFFFFF;stroke-miterlimit:10;" cx="28.346" cy="42.473" r="4.667"/>
	<path style="fill:none;stroke:#FFFFFF;stroke-miterlimit:10;" d="M12.032,30.634c0,0,8.361-3.741,16.315-3.741
		c7.723,0,16.315,3.741,16.315,3.741"/>
	<path style="fill:none;stroke:#FFFFFF;stroke-miterlimit:10;" d="M9.041,25.68c0,0,9.894-4.268,19.306-4.268
		c9.139,0,19.306,4.268,19.306,4.268"/>
	<path style="fill:none;stroke:#FFFFFF;stroke-miterlimit:10;" d="M5.953,20.725c0,0,11.476-4.35,22.394-4.35
		c10.601,0,22.394,4.35,22.394,4.35"/>
	<path style="fill:none;stroke:#FFFFFF;stroke-miterlimit:10;" d="M2.976,15.771c0,0,13.001-4.729,25.37-4.729
		c12.01,0,25.37,4.729,25.37,4.729"/>
</g>
<g id="Layer_1">
</g>
</svg>
