<?xml version="1.0" encoding="iso-8859-1"?>
<!-- Generator: Adobe Illustrator 24.2.0, SVG Export Plug-In . SVG Version: 6.00 Build 0)  -->
<svg version="1.1" xmlns="http://www.w3.org/2000/svg" xmlns:xlink="http://www.w3.org/1999/xlink" x="0px" y="0px"
	 viewBox="0 0 56.693 56.693" style="enable-background:new 0 0 56.693 56.693;" xml:space="preserve">
<g id="pause">
	<path style="fill:none;stroke:#F39C12;stroke-miterlimit:10;" d="M53.304,56.138H3.389c-1.566,0-2.835-1.269-2.835-2.835V3.389
		c0-1.566,1.269-2.835,2.835-2.835h49.914c1.566,0,2.835,1.269,2.835,2.835v49.914C56.138,54.869,54.869,56.138,53.304,56.138z"/>
	<path style="fill:#F39C12;stroke:#F39C12;stroke-miterlimit:10;" d="M22.411,47.999h-8.128c-0.783,0-1.417-0.635-1.417-1.417
		v-36.47c0-0.783,0.635-1.417,1.417-1.417h8.128c0.783,0,1.417,0.635,1.417,1.417v36.47C23.828,47.364,23.193,47.999,22.411,47.999z
		"/>
	<path style="fill:#F39C12;stroke:#F39C12;stroke-miterlimit:10;" d="M42.411,47.999h-8.128c-0.783,0-1.417-0.635-1.417-1.417
		v-36.47c0-0.783,0.635-1.417,1.417-1.417h8.128c0.783,0,1.417,0.635,1.417,1.417v36.47C43.828,47.364,43.193,47.999,42.411,47.999z
		"/>
</g>
<g id="Layer_1">
</g>
</svg>
