<?xml version="1.0" encoding="iso-8859-1"?>
<!-- Generator: Adobe Illustrator 24.2.0, SVG Export Plug-In . SVG Version: 6.00 Build 0)  -->
<svg version="1.1" xmlns="http://www.w3.org/2000/svg" xmlns:xlink="http://www.w3.org/1999/xlink" x="0px" y="0px"
	 viewBox="0 0 56.693 56.693" style="enable-background:new 0 0 56.693 56.693;" xml:space="preserve">
<g id="print">
	<path style="fill:none;stroke:#FFFFFF;stroke-miterlimit:10;" d="M53.304,56.138H3.389c-1.566,0-2.835-1.269-2.835-2.835V3.389
		c0-1.566,1.269-2.835,2.835-2.835h49.914c1.566,0,2.835,1.269,2.835,2.835v49.914C56.138,54.869,54.869,56.138,53.304,56.138z"/>
	<path style="fill:#FFFFFF;" d="M34.061,15.88c0.213-0.313,0.396-0.647,0.556-0.994h3.207v-1.523H35.12
		c0.065-0.323,0.1-0.657,0.118-0.994h2.586v-1.523h-2.671c-0.057-0.34-0.135-0.673-0.24-0.994h2.911V8.33h-3.628
		c-0.223-0.355-0.477-0.687-0.759-0.994h4.387V6.194c0-0.657-0.532-1.189-1.189-1.189H20.058c-0.657,0-1.189,0.532-1.189,1.189
		v1.141h4.387c-0.282,0.308-0.536,0.639-0.759,0.994h-3.628v1.523h2.911c-0.105,0.321-0.183,0.654-0.24,0.994h-2.671v1.523h2.586
		c0.018,0.338,0.053,0.671,0.118,0.994h-2.704v1.523h3.207c0.16,0.347,0.343,0.681,0.556,0.994h-3.763v1.918
		c0,0.657,0.532,1.189,1.189,1.189h4.979v1.678h-4.11v4.614h3.177v0.388h1.371l2.808,1.088l2.808-1.088h1.496V25.28h3.177v-4.614
		h-4.109v-1.678h4.979c0.657,0,1.189-0.532,1.189-1.189V15.88H34.061z M28.346,17.03c-2.78,0-5.034-2.254-5.034-5.034
		c0-2.78,2.254-5.034,5.034-5.034s5.034,2.254,5.034,5.034C33.38,14.776,31.127,17.03,28.346,17.03z"/>
	<g>
		<polygon style="fill:#FFFFFF;stroke:#FFFFFF;" points="45.198,47.721 28.752,52.005 28.752,30.29 45.198,33.146 		"/>
		<polygon style="fill:none;stroke:#FFFFFF;" points="11.495,47.721 27.892,52.005 27.892,30.29 11.495,33.146 		"/>
	</g>
	<rect x="0.555" y="9.079" style="fill:#FFFFFF;" width="21.903" height="2.917"/>
	<rect x="33.939" y="9.079" style="fill:#FFFFFF;" width="22.199" height="2.917"/>
</g>
<g id="Layer_1">
</g>
</svg>
