<?xml version="1.0" encoding="iso-8859-1"?>
<!-- Generator: Adobe Illustrator 24.2.0, SVG Export Plug-In . SVG Version: 6.00 Build 0)  -->
<svg version="1.1" xmlns="http://www.w3.org/2000/svg" xmlns:xlink="http://www.w3.org/1999/xlink" x="0px" y="0px"
	 viewBox="0 0 56.693 56.693" style="enable-background:new 0 0 56.693 56.693;" xml:space="preserve">
<g id="refresh">
	<path style="fill:none;stroke:#FFFFFF;stroke-miterlimit:10;" d="M53.304,56.138H3.389c-1.566,0-2.835-1.269-2.835-2.835V3.389
		c0-1.566,1.269-2.835,2.835-2.835h49.914c1.566,0,2.835,1.269,2.835,2.835v49.914C56.138,54.869,54.869,56.138,53.304,56.138z"/>
	<polygon style="fill:#3498DB;" points="35.486,11.026 35.486,11.026 23.418,17.23 23.282,5.093 	"/>
	<polygon style="fill:#3498DB;" points="21.18,45.852 21.18,45.852 33.249,39.649 33.384,51.785 	"/>
	<polygon style="fill:#3498DB;" points="11.026,21.207 11.026,21.207 17.23,33.275 5.093,33.411 	"/>
	<polygon style="fill:#3498DB;" points="45.852,35.513 45.852,35.513 39.649,23.444 51.785,23.309 	"/>
	<circle style="fill:none;stroke:#3498DB;stroke-width:4;stroke-miterlimit:10;" cx="28.532" cy="28.717" r="17.556"/>
	<path style="fill:#3498DB;" d="M24.772,37.196v-8.915c0-1.566,1.269-2.835,2.835-2.835h1.48c1.566,0,2.835,1.269,2.835,2.835v8.915
		c0,1.566-1.269,2.835-2.835,2.835h-1.48C26.041,40.031,24.772,38.762,24.772,37.196z"/>
	<circle style="fill:#3498DB;" cx="28.346" cy="20.236" r="3.574"/>
</g>
<g id="Layer_1">
</g>
</svg>
