<?xml version="1.0" encoding="iso-8859-1"?>
<!-- Generator: Adobe Illustrator 24.2.0, SVG Export Plug-In . SVG Version: 6.00 Build 0)  -->
<svg version="1.1" xmlns="http://www.w3.org/2000/svg" xmlns:xlink="http://www.w3.org/1999/xlink" x="0px" y="0px"
	 viewBox="0 0 56.693 56.693" style="enable-background:new 0 0 56.693 56.693;" xml:space="preserve">
<g id="restart">
	<path style="fill:none;stroke:#FFFFFF;stroke-miterlimit:10;" d="M53.304,56.138H3.389c-1.566,0-2.835-1.269-2.835-2.835V3.389
		c0-1.566,1.269-2.835,2.835-2.835h49.914c1.566,0,2.835,1.269,2.835,2.835v49.914C56.138,54.869,54.869,56.138,53.304,56.138z"/>
	<path style="fill:none;stroke:#F39C12;stroke-width:4;stroke-miterlimit:10;" d="M10.976,28.346c0-9.593,7.777-17.37,17.37-17.37"
		/>
	<path style="fill:none;stroke:#F39C12;stroke-width:4;stroke-miterlimit:10;" d="M45.717,28.346c0,9.593-7.777,17.37-17.37,17.37"
		/>
	<polygon style="fill:#F39C12;" points="37.304,10.84 37.304,10.84 25.235,17.044 25.099,4.908 	"/>
	<polygon style="fill:#F39C12;" points="17.18,45.852 17.18,45.852 29.249,39.649 29.384,51.785 	"/>
	<path id="Shape_5_" style="fill:#F39C12;" d="M30.742,21.194v1.568c0,0.181,0.107,0.341,0.269,0.42
		c0.574,0.282,1.104,0.658,1.57,1.119c1.131,1.118,1.754,2.605,1.754,4.186s-0.623,3.068-1.754,4.186
		c-1.131,1.118-2.636,1.734-4.235,1.734s-3.104-0.616-4.235-1.734c-1.131-1.118-1.754-2.605-1.754-4.186s0.623-3.068,1.754-4.186
		c0.467-0.461,0.997-0.836,1.57-1.119c0.162-0.08,0.269-0.24,0.269-0.42v-1.568c0-0.325-0.326-0.555-0.629-0.439
		c-3.136,1.199-5.361,4.208-5.361,7.731c0,4.577,3.754,8.287,8.386,8.287s8.386-3.71,8.386-8.287c0-3.523-2.225-6.532-5.361-7.731
		C31.068,20.639,30.742,20.869,30.742,21.194z M27.46,19.919h1.502c0.257,0,0.466,0.209,0.466,0.466v7.764
		c0,0.257-0.209,0.466-0.466,0.466H27.46c-0.257,0-0.466-0.209-0.466-0.466v-7.764C26.994,20.128,27.203,19.919,27.46,19.919z"/>
</g>
<g id="Layer_1">
</g>
</svg>
