<?xml version="1.0" encoding="iso-8859-1"?>
<!-- Generator: Adobe Illustrator 24.2.0, SVG Export Plug-In . SVG Version: 6.00 Build 0)  -->
<svg version="1.1" xmlns="http://www.w3.org/2000/svg" xmlns:xlink="http://www.w3.org/1999/xlink" x="0px" y="0px"
	 viewBox="0 0 56.693 56.693" style="enable-background:new 0 0 56.693 56.693;" xml:space="preserve">
<g id="shutdown">
	<path id="Shape_4_" style="fill:#D35400;" d="M35.095,8.2v4.416c0,0.509,0.301,0.959,0.758,1.184
		c1.617,0.795,3.109,1.852,4.424,3.151c3.187,3.149,4.942,7.336,4.942,11.79c0,4.454-1.755,8.641-4.942,11.79
		c-3.187,3.149-7.423,4.884-11.93,4.884s-8.743-1.734-11.93-4.884c-3.187-3.149-4.942-7.336-4.942-11.79
		c0-4.454,1.755-8.641,4.942-11.79c1.314-1.299,2.807-2.356,4.424-3.151c0.457-0.225,0.758-0.675,0.758-1.184V8.2
		c0-0.914-0.917-1.562-1.771-1.235c-8.834,3.378-15.1,11.853-15.1,21.776c0,12.892,10.575,23.343,23.62,23.343
		s23.62-10.451,23.62-23.343c0-9.923-6.266-18.398-15.1-21.776C36.012,6.638,35.095,7.285,35.095,8.2z M25.85,4.61h4.232
		c0.725,0,1.313,0.588,1.313,1.313v21.87c0,0.725-0.588,1.313-1.313,1.313H25.85c-0.725,0-1.313-0.588-1.313-1.313V5.923
		C24.537,5.198,25.125,4.61,25.85,4.61z"/>
	<path style="fill:none;stroke:#D35400;stroke-miterlimit:10;" d="M53.304,56.138H3.389c-1.566,0-2.835-1.269-2.835-2.835V3.389
		c0-1.566,1.269-2.835,2.835-2.835h49.914c1.566,0,2.835,1.269,2.835,2.835v49.914C56.138,54.869,54.869,56.138,53.304,56.138z"/>
</g>
<g id="Layer_1">
</g>
</svg>
