<?xml version="1.0" encoding="iso-8859-1"?>
<!-- Generator: Adobe Illustrator 24.2.0, SVG Export Plug-In . SVG Version: 6.00 Build 0)  -->
<svg version="1.1" xmlns="http://www.w3.org/2000/svg" xmlns:xlink="http://www.w3.org/1999/xlink" x="0px" y="0px"
	 viewBox="0 0 56.693 56.693" style="enable-background:new 0 0 56.693 56.693;" xml:space="preserve">
<g id="toolchanger">
	<path style="fill:none;stroke:#FFFFFF;stroke-width:0.5;" d="M35.343,29.19c0.254-0.373,0.472-0.772,0.663-1.185h3.822V26.19
		h-3.223c0.077-0.385,0.119-0.783,0.14-1.185h3.083V23.19h-3.183c-0.068-0.406-0.161-0.802-0.286-1.185h3.469V20.19h-4.324
		c-0.266-0.423-0.569-0.819-0.904-1.185h5.229v-1.36c0-0.783-0.635-1.417-1.417-1.417H18.653c-0.783,0-1.417,0.635-1.417,1.417v1.36
		h5.229c-0.336,0.367-0.639,0.762-0.904,1.185h-4.324v1.815h3.469c-0.125,0.383-0.218,0.78-0.286,1.185h-3.183v1.815h3.083
		c0.022,0.403,0.063,0.8,0.14,1.185h-3.223v1.815h3.822c0.191,0.414,0.409,0.812,0.663,1.185h-4.485v2.286
		c0,0.783,0.635,1.417,1.417,1.417h5.935v2h-4.898v5.5h3.787v0.463h1.635l3.347,1.296l3.347-1.296h1.783v-0.463h3.787v-5.5h-4.898
		v-2h5.935c0.783,0,1.417-0.635,1.417-1.417V29.19H35.343z M28.532,30.56c-3.314,0-6-2.686-6-6c0-3.314,2.686-6,6-6s6,2.686,6,6
		C34.532,27.874,31.845,30.56,28.532,30.56z"/>
	<path style="fill:none;stroke:#FFFFFF;stroke-miterlimit:10;" d="M53.304,56.138H3.389c-1.566,0-2.835-1.269-2.835-2.835V3.389
		c0-1.566,1.269-2.835,2.835-2.835h49.914c1.566,0,2.835,1.269,2.835,2.835v49.914C56.138,54.869,54.869,56.138,53.304,56.138z"/>
	<path style="fill:none;stroke:#FFFFFF;stroke-width:4;stroke-miterlimit:10;" d="M10.976,28.346c0-9.593,7.777-17.37,17.37-17.37"
		/>
	<path style="fill:none;stroke:#FFFFFF;stroke-width:4;stroke-miterlimit:10;" d="M45.717,28.346c0,9.593-7.777,17.37-17.37,17.37"
		/>
	<polygon style="fill:#FFFFFF;" points="37.304,10.84 37.304,10.84 25.235,17.044 25.099,4.908 	"/>
	<polygon style="fill:#FFFFFF;" points="17.18,45.852 17.18,45.852 29.249,39.649 29.384,51.785 	"/>
</g>
<g id="Layer_1">
</g>
</svg>
